Coordinates
version=1
nRows=27
nColumns=38
inDegrees=no

Units are S.I. units (second, meters, Newtons, ...)
If the header above contains a line with 'inDegrees', this indicates whether rotational values are in degrees (yes) or radians (no).

endheader
time	pelvis_tilt	pelvis_list	pelvis_rotation	pelvis_tx	pelvis_ty	pelvis_tz	hip_flexion_r	hip_adduction_r	hip_rotation_r	knee_angle_r	ankle_angle_r	subtalar_angle_r	mtp_angle_r	hip_flexion_l	hip_adduction_l	hip_rotation_l	knee_angle_l	ankle_angle_l	subtalar_angle_l	mtp_angle_l	lumbar_extension	lumbar_bending	lumbar_rotation	arm_flex_r	arm_add_r	arm_rot_r	elbow_flex_r	pro_sup_r	wrist_flex_r	wrist_dev_r	arm_flex_l	arm_add_l	arm_rot_l	elbow_flex_l	pro_sup_l	wrist_flex_l	wrist_dev_l
5	2.02739	1.45499	-0.474657	0.872322	1.37169	0.956751	-0.214364	0.0753988	-0.187271	0.321323	0.262813	0	0	0.272258	-0.14213	-0.109039	0	0.0357385	0	0	-0.156434	0.129714	0.120777	0.262999	-0.22607	0.103596	1.62178	1.5708	0	0	0.492147	-0.278663	0.297615	1.32213	1.5708	0	0
5.01	2.02388	1.4561	-0.476885	0.870129	1.38025	0.956233	-0.218204	0.0637035	-0.189413	0.331271	0.268647	0	0	0.26289	-0.14191	-0.113881	0	0.0338263	0	0	-0.151435	0.129854	0.123572	0.257809	-0.229357	0.0982542	1.62299	1.5708	0	0	0.486672	-0.279162	0.298622	1.32506	1.5708	0	0
5.02	2.0399	1.45854	-0.498338	0.86803	1.38845	0.955629	-0.220053	0.0547936	-0.183642	0.346011	0.269921	0	0	0.260176	-0.138057	-0.114811	0.00763646	0.0301502	0	0	-0.148048	0.127295	0.12676	0.252575	-0.231383	0.0950579	1.62516	1.5708	0	0	0.481662	-0.278834	0.30157	1.32935	1.5708	0	0
5.03	2.05254	1.46118	-0.51677	0.865873	1.39673	0.95495	-0.220066	0.0455941	-0.177747	0.363294	0.270775	0	0	0.257454	-0.133829	-0.115971	0.0220871	0.0282057	0	0	-0.143941	0.124817	0.129915	0.247087	-0.23369	0.0919837	1.6272	1.5708	0	0	0.476231	-0.278934	0.304807	1.33424	1.5708	0	0
5.04	2.0629	1.46432	-0.533434	0.863642	1.40514	0.954217	-0.218522	0.0358171	-0.171416	0.38244	0.271146	0	0	0.253713	-0.128629	-0.117316	0.0329472	0.0236231	0	0	-0.138966	0.122128	0.133145	0.241245	-0.236216	0.0891127	1.62938	1.5708	0	0	0.470181	-0.279373	0.308441	1.33928	1.5708	0	0
5.05	2.07284	1.46841	-0.550328	0.861352	1.41365	0.953468	-0.215024	0.0248512	-0.164518	0.404072	0.271411	0	0	0.249346	-0.122127	-0.120557	0.039295	0.0110258	0	0	-0.133014	0.118632	0.136922	0.234486	-0.23875	0.0856606	1.63206	1.5708	0	0	0.463699	-0.280092	0.312926	1.34441	1.5708	0	0
5.06	2.06006	1.47238	-0.543024	0.858934	1.42195	0.952643	-0.207932	0.0159884	-0.156452	0.427684	0.269563	0	0	0.24875	-0.116837	-0.123354	0.0455544	-0.0101769	0	0	-0.128362	0.116118	0.130513	0.235151	-0.239033	0.0923981	1.63184	1.5708	0	0	0.437383	-0.242373	0.0999568	1.46735	0.897753	0	0
5.07	2.08443	1.4774	-0.572115	0.856441	1.43026	0.952236	-0.202409	0.00444864	-0.148385	0.453036	0.265566	0	0	0.245881	-0.108996	-0.130105	0.0524968	-0.0343996	0	0	-0.120286	0.111527	0.141052	0.220894	-0.242371	0.0786101	1.6367	1.5708	0	0	0.452811	-0.282261	0.325214	1.35345	1.5708	0	0
5.08	2.10633	1.48376	-0.597859	0.853702	1.43834	0.952049	-0.193502	-0.0076924	-0.139158	0.481329	0.258891	0	0	0.246356	-0.100612	-0.138532	0.0644883	-0.0506501	0	0	-0.117983	0.105089	0.132567	0.222871	-0.241532	0.0849136	1.63494	1.5708	0	0	0.425721	-0.243208	0.109904	1.47573	0.901485	0	0
5.09	2.16031	1.4907	-0.653747	0.851012	1.44612	0.952249	-0.184562	-0.0207834	-0.130379	0.511545	0.24969	0	0	0.246377	-0.0906137	-0.14673	0.0797278	-0.0571495	0	0	-0.111953	0.0971915	0.141375	0.209665	-0.244239	0.0693924	1.63842	1.5708	0	0	0.443824	-0.281922	0.333627	1.36074	1.5708	0	0
5.1	2.22072	1.49736	-0.715444	0.848271	1.45373	0.952666	-0.173675	-0.0331292	-0.120237	0.543731	0.237576	0	0	0.246455	-0.0808006	-0.154221	0.0952845	-0.0586343	0	0	-0.109525	0.0889992	0.140639	0.204442	-0.245242	0.0652942	1.63919	1.5708	0	0	0.439845	-0.279828	0.334492	1.36386	1.5708	0	0
5.11	2.28704	1.50424	-0.782828	0.845578	1.46114	0.953154	-0.160033	-0.0452099	-0.109048	0.578679	0.223329	0	0	0.246624	-0.0708919	-0.161587	0.109549	-0.0600078	0	0	-0.106697	0.0805512	0.140673	0.199048	-0.247045	0.0607507	1.64071	1.5708	0	0	0.436929	-0.278897	0.339874	1.36733	1.5708	0	0
5.12	2.34773	1.51158	-0.844922	0.842902	1.46836	0.953588	-0.142809	-0.056517	-0.0964473	0.616334	0.207127	0	0	0.247561	-0.0613548	-0.169128	0.121948	-0.0629346	0	0	-0.105671	0.0719862	0.132486	0.201304	-0.24845	0.0676596	1.63997	1.5708	0	0	0.413414	-0.239318	0.130915	1.48545	0.903392	0	0
5.13	2.41971	1.5181	-0.917338	0.840269	1.47531	0.954014	-0.124503	-0.0664383	-0.0839392	0.655465	0.188945	0	0	0.247548	-0.0520852	-0.174992	0.131864	-0.0685576	0	0	-0.10232	0.0645313	0.132116	0.197298	-0.25197	0.0646554	1.64162	1.5708	0	0	0.411161	-0.237443	0.134102	1.48711	0.888424	0	0
5.14	2.48318	1.52407	-0.980724	0.83764	1.48208	0.954281	-0.104321	-0.0744217	-0.0716469	0.695963	0.170404	0	0	0.247418	-0.043686	-0.179548	0.139128	-0.0767436	0	0	-0.0986182	0.0584963	0.131338	0.194369	-0.255975	0.0621492	1.64347	1.5708	0	0	0.40898	-0.235398	0.137089	1.48916	0.879538	0	0
5.15	2.52553	1.53124	-1.02304	0.834996	1.48864	0.954219	-0.0800517	-0.081277	-0.0590849	0.739022	0.150799	0	0	0.248719	-0.0353072	-0.182661	0.143437	-0.0869614	0	0	-0.0927878	0.053366	0.130731	0.192005	-0.260866	0.0630242	1.64493	1.5708	0	0	0.406876	-0.23313	0.140168	1.49125	0.871777	0	0
5.16	2.56235	1.53839	-1.0588	0.832315	1.49497	0.953963	-0.0544672	-0.0868088	-0.0474423	0.782739	0.130086	0	0	0.249887	-0.0266842	-0.182902	0.145236	-0.0954547	0	0	-0.0867216	0.0490436	0.129225	0.190469	-0.265822	0.0659105	1.64503	1.5708	0	0	0.405438	-0.230852	0.143579	1.49287	0.866218	0	0
5.17	2.61505	1.54529	-1.10952	0.829667	1.50111	0.953583	-0.0284696	-0.0916739	-0.0372782	0.826781	0.108443	0	0	0.250715	-0.0177754	-0.182399	0.146547	-0.0983033	0	0	-0.0810554	0.044815	0.127002	0.188887	-0.269702	0.0654739	1.6444	1.5708	0	0	0.405011	-0.228801	0.147148	1.4938	0.861251	0	0
5.18	2.71975	1.55132	-1.21161	0.827075	1.50708	0.953193	-0.00339022	-0.0960432	-0.028429	0.869886	0.086656	0	0	0.250705	-0.0087698	-0.183009	0.148169	-0.096489	0	0	-0.0765177	0.0404926	0.124316	0.186817	-0.272173	0.0612486	1.64416	1.5708	0	0	0.405472	-0.226932	0.150566	1.49396	0.856833	0	0
5.19	2.93852	1.55571	-1.42707	0.824559	1.51286	0.952929	0.0199322	-0.100011	-0.0206019	0.911326	0.0654913	0	0	0.249213	0.000526114	-0.184202	0.149417	-0.0943407	0	0	-0.073799	0.0357853	0.12084	0.185768	-0.27431	0.0577607	1.64397	1.5708	0	0	0.406507	-0.225471	0.153727	1.49377	0.852854	0	0
5.2	-2.99809	1.55759	-1.76949	0.822146	1.51842	0.95287	0.0416484	-0.103844	-0.0146219	0.951478	0.0438277	0	0	0.246	0.0100124	-0.184466	0.149632	-0.0937709	0	0	-0.0730428	0.030741	0.116322	0.18572	-0.276105	0.055263	1.64276	1.5708	0	0	0.407978	-0.224663	0.157208	1.49411	0.848943	0	0
5.21	-2.64907	1.55695	-2.11384	0.819821	1.52379	0.953016	0.062103	-0.107475	-0.0106337	0.990016	0.0211974	0	0	0.241356	0.0192737	-0.183712	0.148757	-0.0931785	0	0	-0.0736655	0.0257415	0.111203	0.185966	-0.277675	0.0528242	1.641	1.5708	0	0	0.409597	-0.224266	0.161335	1.49533	0.844715	0	0
5.22	-2.41233	1.55516	-2.3457	0.817576	1.52899	0.953327	0.0817691	-0.110446	-0.00859901	1.02633	-0.00216509	0	0	0.236203	0.0275698	-0.182258	0.147709	-0.0914964	0	0	-0.0749921	0.0214252	0.105966	0.186764	-0.278921	0.0505773	1.63993	1.5708	0	0	0.41166	-0.223458	0.164237	1.49553	0.84065	0	0
5.23	-2.26618	1.55369	-2.48683	0.815432	1.53405	0.953761	0.101057	-0.112609	-0.00885367	1.05986	-0.0241654	0	0	0.231425	0.0343321	-0.180644	0.147119	-0.0896557	0	0	-0.0764102	0.0182658	0.100718	0.187837	-0.279669	0.0484473	1.63989	1.5708	0	0	0.413937	-0.222134	0.16559	1.49466	0.837125	0	0
5.24	-2.2615	1.55465	-2.48763	0.812058	1.53903	0.954361	0.121861	-0.127676	-0.0107878	1.08821	-0.0306756	0	0	0.227124	0.0388283	-0.17848	0.147575	-0.0881392	0	0	-0.0781448	0.0213382	0.0955965	0.189069	-0.281088	0.0488527	1.64049	1.5708	0	0	0.415969	-0.218946	0.166493	1.49315	0.834118	0	0
5.25	-2.17065	1.55521	-2.57352	0.80997	1.54372	0.954908	0.141067	-0.129229	-0.0125372	1.11656	-0.0363975	0	0	0.224341	0.0428503	-0.175893	0.148746	-0.0864364	0	0	-0.0790407	0.0209108	0.0903667	0.190187	-0.282878	0.0477062	1.64016	1.5708	0	0	0.418453	-0.216714	0.166491	1.4908	0.831154	0	0
5.26	-2.05082	1.55727	-2.68844	0.807973	1.54829	0.955399	0.160916	-0.12911	-0.0150595	1.14254	-0.0328937	0	0	0.22286	0.0453257	-0.171889	0.149875	-0.0839373	0	0	-0.0787037	0.0217382	0.0851685	0.191335	-0.284473	0.0463718	1.63947	1.5708	0	0	0.420944	-0.214517	0.166874	1.488	0.827505	0	0
